<?xml version="1.0" encoding="utf-8"?>
<!DOCTYPE svg PUBLIC "-//W3C//DTD SVG 1.0//EN" "http://www.w3.org/TR/2001/REC-SVG-20010904/DTD/svg10.dtd">
<svg version="1.0" xmlns="http://www.w3.org/2000/svg" width="1600px" height="686px" viewBox="0 0 1600 686" preserveAspectRatio="xMidYMid meet">
 <g fill="#fdfdfe">
  <path d="M0 342.9 l0 -342.9 800 0 800 0 0 342.9 0 342.9 -800 0 -800 0 0 -342.9z m983.1 270.3 c1.4 -1.7 3 -4.3 3.3 -5.7 0.4 -1.4 0.1 -47.1 -0.6 -101.7 -0.6 -54.5 -1.5 -123.6 -1.8 -153.4 l-0.7 -54.4 -3.4 -3.3 -3.3 -3.4 -42.1 -0.3 c-28 -0.2 -43.3 0 -45.8 0.8 -2.4 0.7 -4.4 2.1 -5.7 4.4 -1.1 1.7 -6.8 17.6 -12.9 34.9 -5.9 17.4 -17.1 49.6 -25 71.4 l-14.1 39.8 -3.6 0.3 -3.7 0.3 -3.3 -8.5 c-1.8 -4.7 -5.7 -15.1 -8.7 -23.3 -3.1 -8.2 -10.1 -27.4 -15.8 -42.9 -5.7 -15.4 -13.8 -37.6 -17.9 -49.2 -4.2 -11.6 -8.2 -22 -8.9 -23.2 -3.2 -5.1 -4.6 -5.2 -52.8 -5.2 -48.8 0 -51.3 0.3 -54.2 5.6 -1.1 2.1 -0.3 5.3 8.5 29.8 5.3 15 12.3 34.8 15.5 44 l5.9 16.5 3.2 0 c3.2 0 3.3 0.1 7.7 12.6 6.3 18 23.6 65.4 37.9 104.3 6.8 18.6 17.1 47 23.1 63.3 5.8 16.3 11.8 32.7 13.3 36.4 2.9 7.4 7.3 12.3 11 11.8 3 -0.4 6.1 -5.7 8.8 -14.4 9.4 -31.8 58.5 -181.6 68.1 -208.1 l4.8 -13.1 4.2 0 4.3 0 0.8 64.1 c2.2 182.2 1.8 164 4.2 167.2 3.8 5.1 5.6 5.3 53.2 5.3 l44 0.1 2.7 -3.2z m-338.4 0.9 c2.7 -0.6 5.9 -1.9 7.2 -3.1 1.3 -1 4.1 -2.2 6.2 -2.9 2.8 -0.7 6.2 -3.6 13 -10.5 10.4 -10.8 14.4 -17 18.4 -28.8 2.8 -8.1 2.8 -8.7 3.2 -39.8 0.4 -35.3 0.1 -38.2 -5.2 -41.3 -3.1 -1.9 -5.3 -2 -31.8 -2 -21.1 0 -30.4 0.4 -35.7 1.5 -19.2 4 -36.7 17.9 -45.8 36.2 -6.4 13 -8.5 23.2 -6.9 33.8 3.3 22.4 16.6 41.2 36.4 51 4.7 2.3 10.9 4.8 14 5.5 6.9 1.7 20.9 1.8 27.1 0.3z m267 -345.8 c2.9 -0.6 6.5 -1.4 8.2 -1.9 1.7 -0.4 6.8 -1.6 11.5 -2.7 8.9 -1.9 13.1 -4.7 11.8 -7.9 -0.9 -2.3 -2.7 -2.2 -21.8 1.8 -26.7 5.8 -25.3 5.1 -23.9 10.5 0.7 2.6 1.9 2.6 14.2 0.1z m-183.4 -2.1 c0.4 -3.2 1 -3 -21.7 -8 -7.9 -1.7 -16 -3.6 -18.1 -4 -2.8 -0.6 -4.3 -0.5 -5.8 0.5 -2.7 1.8 -1.8 4 2.1 5.6 4 1.6 38.5 9 41.1 8.8 1.4 -0.1 2.1 -1.1 2.3 -3z m7.4 -22.3 c0.9 -1.8 0.8 -2.4 -0.7 -3.4 -7 -4.3 -66.4 -36.3 -67.3 -36.3 -0.6 0 -1.8 0.7 -2.6 1.6 -2.2 2.7 -3.6 1.8 51.6 31.4 9 4.8 16.6 8.8 17 8.8 0.4 0 1.2 -1 1.9 -2.1z m164.5 -2 c14.2 -7.1 16.4 -8.4 19 -10.3 1.3 -1 3.2 -1.8 4.1 -1.8 0.9 0 2.8 -0.9 4.2 -2 1.4 -1.1 2.9 -2 3.3 -2 0.4 0 2.7 -1.3 5.1 -3 2.4 -1.5 8.2 -4.9 12.8 -7.2 9.2 -4.8 12.1 -7.2 11.2 -9.7 -1 -2.4 -3.3 -1.8 -11.7 3 -4.3 2.4 -11.7 6.5 -16.5 9.1 -9.1 4.8 -38 20.8 -41.2 22.8 -1.5 0.9 -1.6 1.5 -0.7 3.4 0.7 1.1 1.4 2.1 1.7 2.1 0.3 0 4.4 -1.8 8.9 -4.2z m10.3 -50.2 c-0.3 -0.9 -1.3 -1.7 -2.1 -1.7 -0.9 0 -9 7.3 -18.1 16.2 l-16.3 16.2 1.9 2.2 1.9 2.1 16.6 -16.7 c12.6 -12.4 16.5 -17 16 -18.4z m-161.2 32.1 c1.5 -1.8 0.8 -2.7 -15.2 -17.9 -15.3 -14.5 -17 -15.9 -18.9 -14.8 -1.1 0.7 -2 1.6 -2 2 0 0.8 32.9 32.4 33.8 32.4 0.3 0 1.3 -0.8 2.3 -1.8z m19.6 -18.1 c-2.6 -4 -18.9 -31.8 -28.7 -49 -5.4 -9.5 -10.4 -17.7 -11.1 -18.1 -0.6 -0.4 -1.9 0.1 -3.1 1.1 -1.8 1.8 -1.4 2.7 14.8 30.3 9.1 15.7 18.4 31.3 20.5 34.8 4.1 6.4 4.1 6.4 6.4 4.6 2 -1.5 2.2 -2 1.1 -3.8z m96.1 -3.7 c2.4 -4.2 11.3 -19.5 19.7 -34 14.1 -24.6 15.1 -26.6 13.6 -28.3 -0.9 -1 -2.1 -1.6 -2.9 -1.3 -0.7 0.3 -4.2 5.6 -7.8 11.9 -3.6 6.3 -12.4 21.7 -19.7 34.3 -12.3 21.4 -13.1 23 -11.3 24.3 1 0.7 2.3 1.2 2.9 1 0.6 -0.2 3.1 -3.8 5.5 -8z m-75.5 -1.5 c1.2 -0.4 2.2 -1.3 2.2 -2.2 0 -2.1 -10.1 -39.6 -11.5 -42.8 -1.4 -3.3 -5.2 -2.9 -5.6 0.7 -0.1 1.4 2.2 11.9 5.4 23.3 3.1 11.4 5.6 21 5.6 21.2 0 0.5 1.1 0.5 3.9 -0.2z m50.6 -4.7 c4.5 -15.6 9.9 -38 9.6 -39.9 -0.4 -3 -4.4 -3.6 -5.8 -0.9 -0.8 1.6 -11.3 41.8 -11.3 43.6 0 0.5 3.8 2.3 5.3 2.4 0.4 0.1 1.3 -2.3 2.2 -5.2z m-25.1 1 c0.9 -0.9 1.2 -11 1.2 -39.2 0 -35.8 -0.1 -38.1 -1.9 -40.3 -1.9 -2.3 -1.9 -2.4 -4.1 -0.5 -2.1 1.9 -2.1 2.7 -2.1 40.4 0 39.6 0.1 40.8 4.1 40.8 0.9 0 2.1 -0.5 2.9 -1.2z"/>
 </g>
 <g fill="#f06713">
  <path d="M885.8 618.1 c-1.9 -0.7 -4.5 -2.6 -5.6 -4.1 -2.3 -3.3 -1.9 15 -4.2 -167.2 -0.6 -47.9 -1.1 -64.1 -2 -64.1 -0.6 0 -3.3 5.8 -5.9 13.1 -9.6 26.4 -58.7 176.2 -68.1 208.1 -1.2 4.1 -3.3 9 -4.5 10.7 -1.9 3 -2.9 3.4 -7.4 3.7 -4.3 0.2 -5.6 -0.1 -8.3 -2.3 -3.5 -2.9 -3.5 -3 -19 -45.9 -5.9 -16.2 -16.2 -44.7 -23.1 -63.3 -14.3 -38.9 -31.5 -86.3 -37.9 -104.3 -4.4 -12.4 -4.5 -12.6 -7.7 -12.6 l-3.2 0 -13.6 -38 c-19.5 -54.9 -18.9 -53 -16.8 -57.2 3.2 -6.7 3.7 -6.8 57.8 -6.8 51.4 0 52.7 0.1 55.8 5.2 0.7 1.1 4.7 11.5 8.9 23.2 4.1 11.6 12.1 33.8 17.9 49.2 5.7 15.4 12.8 34.7 15.8 42.9 9.4 25.7 11.9 31.8 12.8 30.9 0.8 -0.9 28.2 -77.9 42.1 -118.8 4.8 -13.8 9.4 -26.3 10.4 -27.8 1 -1.5 3.4 -3.3 5.5 -3.8 2.4 -0.8 19 -1 48.8 -0.8 l45.2 0.3 3.3 3.4 3.4 3.3 0.6 53.4 c0.4 29.3 1.3 99.7 1.9 156.4 0.7 56.7 1 104.3 0.7 105.7 -0.4 1.5 -1.9 4.1 -3.4 5.8 l-2.7 3.2 -47 -0.1 c-33.8 0 -48.2 -0.4 -50.6 -1.2z"/>
  <path d="M614.5 616.8 c-3.1 -0.7 -9.5 -3.3 -14.3 -5.6 -7 -3.5 -10.5 -6 -17 -12.7 -9 -9.1 -12.2 -14.4 -16.3 -26.6 -5.7 -17 -4.4 -34.1 4.2 -51.5 9.1 -18.3 26.6 -32.2 45.8 -36.2 5.4 -1.1 15 -1.5 38.8 -1.5 29.6 0 31.8 0.1 34.9 2 5.3 3.2 5.6 5.8 5.2 44.4 -0.4 34.5 -0.4 34.7 -3.2 42.9 -4 11.7 -8 18 -18.4 28.8 -6.7 6.9 -10.2 9.8 -13 10.5 -2.1 0.6 -4.9 1.8 -6.2 2.9 -1.3 1.1 -4.6 2.4 -7.2 3.1 -6.2 1.6 -26.4 1.4 -33.3 -0.3z"/>
  <path d="M704.9 268.9 c-26.2 -5.5 -27.3 -6 -27.3 -12.4 0 -3.7 3 -6.4 6.8 -6.4 2.1 0 32.3 6.4 44 9.4 l4.5 1.1 -0.7 4.7 c-1 7.2 -1.4 8.3 -3.9 8.2 -1.2 0 -11.7 -2 -23.4 -4.5z"/>
  <path d="M894.5 270.8 c-2.1 -10.8 -2.2 -10.2 2.7 -11.4 6.5 -1.6 37.4 -8.2 42.2 -8.9 3.6 -0.5 4.6 -0.3 6.4 1.6 2.8 3.1 2.8 6.2 -0.3 9.8 -1.9 2.3 -4.1 3.3 -10.9 4.7 -4.7 1.1 -9.9 2.2 -11.6 2.8 -7.4 2 -13.5 3.2 -20.4 3.8 l-7.4 0.6 -0.6 -3z"/>
  <path d="M730.1 248.9 c-5.5 -2.9 -33.5 -17.8 -50.7 -27.1 -7.8 -4.2 -15.1 -8.5 -16.3 -9.4 -4.6 -3.8 -1.4 -12.3 4.7 -12.3 1.1 0 16.6 7.9 34.3 17.4 34 18.4 39.8 21.7 39.8 23.4 0 1.6 -5.5 10.2 -6.6 10.2 -0.5 -0.1 -2.9 -1 -5.1 -2.1z"/>
  <path d="M888.6 249.3 c-0.9 -1 -2.4 -3.5 -3.4 -5.4 l-1.8 -3.5 2.8 -2.1 c2.7 -1.9 23.3 -13.5 42.4 -23.7 4.8 -2.6 12.2 -6.7 16.7 -9.2 9.9 -5.6 13.9 -6.4 16.8 -3.5 2.9 2.9 2.8 7.3 -0.2 10.1 -1.3 1.2 -6 4.1 -10.4 6.4 -4.5 2.3 -10.1 5.6 -12.6 7.1 -2.4 1.6 -4.7 3 -5.1 3 -0.4 0 -1.8 0.9 -3.3 2 -1.4 1.1 -3.3 2 -4.2 2 -0.9 0 -2.8 0.8 -4.1 1.8 -1.3 1 -4.3 2.9 -6.5 4 -8.6 4.5 -24.8 12.6 -25.3 12.6 -0.2 0 -1.1 -0.8 -1.9 -1.7z"/>
  <path d="M731.5 217.1 c-24.1 -22.7 -24.9 -23.9 -19.6 -28.9 3.4 -3.1 5 -3.2 8.6 -0.7 3.8 2.6 32.3 29.8 34.2 32.8 1.6 2.3 1.5 2.6 -3 6.9 l-4.5 4.6 -15.7 -14.7z"/>
  <path d="M872.9 227.1 c-1.9 -1.9 -3.5 -4.1 -3.5 -4.9 0 -2 33.6 -35 36.5 -36 5.4 -1.6 10.3 2.7 9.1 7.9 -0.8 3.1 -34.5 36.5 -36.8 36.5 -1 0 -3.4 -1.5 -5.3 -3.5z"/>
  <path d="M760.9 211.6 c-1.7 -2.4 -11.3 -18.5 -21.3 -35.4 -19.1 -32.6 -20.5 -36 -16.3 -39.8 1.9 -1.7 6.9 -2.2 9 -0.9 0.7 0.4 5.7 8.6 11.1 18.1 5.5 9.6 14.7 25.4 20.5 35.3 5.8 9.8 10.6 18.6 10.6 19.4 0 1.5 -5.4 6.2 -8.5 7.3 -1.3 0.5 -2.6 -0.4 -5.1 -4z"/>
  <path d="M855.6 213 c-2.6 -1.4 -4.2 -3.2 -4.4 -4.6 -0.2 -1.5 4.6 -10.9 13.9 -27 7.9 -13.6 16.8 -29.3 20.1 -34.9 3.2 -5.6 6.3 -10.5 6.9 -10.9 2.2 -1.4 7.6 -0.8 9.2 1 3.5 3.9 2.2 7.2 -12.9 33.5 -22.4 39.1 -26.2 45.3 -27.6 45.3 -0.7 0 -3.1 -1.1 -5.3 -2.3z"/>
  <path d="M782.7 202.6 c-1.8 -4.9 -12.2 -44.9 -12.2 -47.1 0 -3.2 3.5 -6.4 6.9 -6.4 3.3 0 4.6 0.8 6.1 3.6 1.4 2.9 12.4 44.5 12.4 47.2 0 1.6 -1 2.7 -3.7 3.8 -5.5 2.2 -8.5 1.9 -9.6 -1z"/>
  <path d="M833.5 203.5 c-2.8 -0.8 -4.9 -2 -4.9 -2.8 0 -2.8 11.4 -47.7 12.6 -49.1 0.7 -0.9 2.9 -1.9 4.9 -2.2 3 -0.5 4.2 -0.2 5.9 1.5 1.1 1.1 2.1 3.2 2.1 4.4 0 2.2 -9 37.7 -11.4 45.2 -1.5 4.7 -2.7 5 -9.2 3z"/>
  <path d="M806.3 199.8 c-0.9 -0.9 -1.2 -11.8 -1.2 -42.7 0 -39 0.1 -41.6 1.8 -43.2 1 -1 3.6 -1.7 5.6 -1.7 6.9 0 6.8 -0.5 6.8 45.4 0 30.5 -0.3 41.2 -1.2 42.1 -0.7 0.7 -3.4 1.2 -5.9 1.2 -2.6 0 -5.2 -0.5 -5.9 -1.2z"/>
 </g>
</svg>